# xmcd
#
# Track frame offsets:
#	150
#	15981
#	26829
#	52327
#	71215
#	84795
#	99908
#	115232
#	130960
#	135306
#	156785
#	178662
#	202800
#	231361
#	246045
#
# Disc length: 3628 seconds
#
# Revision: 0
# Processed by: cddbd v1.5.2PL0 Copyright (c) Steve Scherf et al.
# Submitted via: audiograbber 1.83.01
#
DISCID=c20e2a0f
DTITLE=Dic Ta Phone - Collection - Box-Set [2019] [CD 1) - M.=Addiction
DYEAR=2002
DGENRE=Electronic/Jazz
TTITLE0=M.=Addiction
TTITLE1=Sonne Free
TTITLE2=The E.Song
TTITLE3=Tempelhof
TTITLE4=ESC. Meetings
TTITLE5=Dictaphone
TTITLE6=Disconnected
TTITLE7=La Piscine
TTITLE8=Outside (wird geistvoll gefickt)
TTITLE9=Lügen
TTITLE10=Tango Doerell
TTITLE11=Nacht [EP 2004] - Peaks
TTITLE12=Nacht [EP 2004] - Warszawa w nocy
TTITLE13=Nacht [EP 2004] - Krimi
TTITLE14=Nacht [EP 2004] - Nacht
EXTD=
EXTT0=
EXTT1=
EXTT2=
EXTT3=
EXTT4=
EXTT5=
EXTT6=
EXTT7=
EXTT8=
EXTT9=
EXTT10=
EXTT11=
EXTT12=
EXTT13=
EXTT14=
PLAYORDER=
